<?xml version="1.0" encoding="UTF-8"?>
<svg xmlns="http://www.w3.org/2000/svg" height="36" version="1.1" viewBox="40 360 516 125">
  <g>
    <g id="logo" stroke-linecap="round" fill-rule="nonzero" font-size="9pt" stroke="currentColor" stroke-width="0" fill="currentColor">
      <g>
        <g>
          <path d="M119.52,444.69v-77.95h17.4v62.45h33.23v15.5h-50.63Z"/>
          <path d="M182.58,377.06c-1.9-1.9-2.84-4.22-2.84-6.97s.95-5.07,2.84-6.97c1.9-1.9,4.22-2.84,6.97-2.84s5.07.95,6.97,2.84,2.84,4.22,2.84,6.97-.95,5.07-2.84,6.97c-1.9,1.9-4.22,2.84-6.97,2.84s-5.07-.95-6.97-2.84ZM197.91,444.69h-16.73v-59.99h16.73v59.99Z"/>
          <path d="M233.7,381.24v4.01h14.5v12.04h-14.5v47.39h-16.84v-47.39h-7.03v-12.04h7.03v-3.68c0-6.54,1.99-11.73,5.97-15.56,3.98-3.83,8.92-5.74,14.83-5.74s11.28,2.23,16.11,6.69l-6.02,11.26c-2.45-2.82-5.17-4.24-8.14-4.24-1.71,0-3.12.61-4.24,1.84s-1.67,3.03-1.67,5.41Z"/>
          <path d="M278.53,396.74v26.87c0,2.31.59,4.11,1.78,5.41,1.19,1.3,2.6,1.95,4.24,1.95,3.12,0,5.76-1.41,7.92-4.24l6.24,11.71c-5.2,4.76-10.69,7.14-16.45,7.14s-10.63-1.9-14.61-5.69c-3.98-3.79-5.97-8.96-5.97-15.5v-27.66h-7.03v-12.04h7.03v-17.95h16.84v17.95h14.5v12.04h-14.5Z"/>
          <path d="M339.75,381.8v62.89h-17.4v-62.89h-22.08v-15.05h61.56v15.05h-22.08Z"/>
          <path d="M419.04,435.99c-6.77,6.39-14.7,9.59-23.81,9.59s-16.63-2.8-22.58-8.42c-5.95-5.61-8.92-13.14-8.92-22.58s3.03-16.95,9.09-22.53c6.06-5.58,13.21-8.36,21.47-8.36s15.26,2.49,21.02,7.47c5.76,4.98,8.64,11.82,8.64,20.52v8.92h-43.71c.52,3.27,2.23,5.95,5.13,8.03,2.9,2.08,6.17,3.12,9.81,3.12,5.87,0,10.71-1.97,14.5-5.91l9.37,10.15ZM402.98,400.42c-2.3-1.93-5.11-2.9-8.42-2.9s-6.34,1-9.09,3.01c-2.75,2.01-4.35,4.72-4.8,8.14h26.32c-.37-3.57-1.71-6.32-4.01-8.25Z"/>
          <path d="M464.76,430.75c5.58,0,10.59-2.79,15.05-8.36l9.92,11.15c-7.73,8.03-16.1,12.04-25.09,12.04s-16.6-2.84-22.8-8.53c-6.21-5.69-9.31-13.12-9.31-22.3s3.14-16.65,9.42-22.41c6.28-5.76,13.73-8.64,22.36-8.64,4.31,0,8.68.89,13.1,2.68,4.42,1.78,8.31,4.42,11.65,7.92l-8.7,11.37c-1.93-2.3-4.29-4.09-7.08-5.35-2.79-1.26-5.56-1.9-8.31-1.9-4.39,0-8.16,1.43-11.32,4.29-3.16,2.86-4.74,6.84-4.74,11.93s1.58,9.05,4.74,11.88c3.16,2.83,6.86,4.24,11.1,4.24Z"/>
          <path d="M515.49,412.35v32.34h-16.73v-82.74h16.73v29.44c5.06-5.13,10.72-7.69,17.01-7.69s11.58,2.23,15.89,6.69c4.31,4.46,6.47,10.41,6.47,17.84v36.46h-16.73v-32.78c0-9.22-3.38-13.83-10.15-13.83-3.34,0-6.26,1.21-8.75,3.62-2.49,2.42-3.74,5.97-3.74,10.65Z"/>
        </g>
        <g>
          <path d="M186.21,477.69l-1.64,3.73h-2.96l7.23-16.42h2.96l7.23,16.42h-2.96l-1.64-3.73h-8.22ZM193.31,475.13l-2.98-6.76-2.98,6.76h5.97Z"/>
          <path d="M233.89,478.91c.95,0,1.78-.16,2.47-.48.69-.32,1.41-.83,2.16-1.54l1.79,1.83c-1.74,1.93-3.85,2.89-6.33,2.89s-4.54-.8-6.18-2.4c-1.64-1.6-2.45-3.62-2.45-6.06s.83-4.48,2.5-6.11c1.67-1.63,3.77-2.44,6.32-2.44s4.67.94,6.38,2.82l-1.76,1.93c-.78-.75-1.52-1.28-2.22-1.57-.7-.3-1.52-.45-2.45-.45-1.66,0-3.05.54-4.18,1.61-1.13,1.07-1.69,2.44-1.69,4.11s.56,3.06,1.68,4.18c1.12,1.12,2.45,1.68,3.98,1.68Z"/>
          <path d="M271.1,477.69l-1.64,3.73h-2.96l7.23-16.42h2.96l7.23,16.42h-2.96l-1.64-3.73h-8.22ZM278.2,475.13l-2.98-6.76-2.98,6.76h5.97Z"/>
          <path d="M323.72,467.16c1.58,1.43,2.37,3.43,2.37,5.98s-.77,4.57-2.3,6.06-3.88,2.23-7.05,2.23h-5.45v-16.42h5.64c2.94,0,5.21.72,6.79,2.15ZM323.3,473.21c0-3.76-2.15-5.64-6.46-5.64h-2.77v11.25h3.08c1.99,0,3.51-.47,4.57-1.42s1.59-2.35,1.59-4.19Z"/>
          <path d="M366.28,465.01v2.61h-8.76v4.35h7.87v2.47h-7.87v4.39h9.04v2.61h-11.82v-16.42h11.53Z"/>
          <path d="M397.97,481.43h-2.77v-16.42h4.32l4.96,10.31,4.96-10.31h4.3v16.42h-2.77v-12.83l-5.73,11.39h-1.55l-5.71-11.39v12.83Z"/>
          <path d="M449.83,481.43h-2.82v-6.48l-6.11-9.94h3.03l4.49,7.47,4.49-7.47h3.03l-6.11,9.94v6.48Z"/>
        </g>
        <rect x="78.43" y="364.39" width="13.39" height="102.27"/>
        <rect x="96.53" y="451.05" width="29.14" height="15.61"/>
        <rect x="59.43" y="364.39" width="13.39" height="102.27"/>
        <rect x="40.42" y="364.39" width="13.39" height="102.27"/>
      </g>
    </g>
  </g>
</svg>