<svg width="103.264" height="17.281" viewBox="0 0 103.264 17.281" xmlns="http://www.w3.org/2000/svg"><g id="svgGroup" stroke-linecap="round" fill-rule="nonzero" font-size="9pt" stroke="#1c1e54" stroke-width="0" fill="#ffffff" style="stroke:#1c1e54;stroke-width:0;fill:#ffffff"><path d="M 91.936 4.384 L 91.456 4.384 L 91.68 3.808 Q 92.034 2.982 92.851 2.211 A 7.31 7.31 0 0 1 92.992 2.08 A 8.119 8.119 0 0 1 94.911 0.809 A 9.188 9.188 0 0 1 95.136 0.704 Q 96.352 0.16 97.664 0.16 A 7.912 7.912 0 0 1 98.982 0.263 Q 99.696 0.384 100.271 0.647 A 3.895 3.895 0 0 1 100.992 1.072 A 4.995 4.995 0 0 1 102.703 3.41 A 6.034 6.034 0 0 1 102.736 3.504 A 9.416 9.416 0 0 1 103.184 5.494 A 12.083 12.083 0 0 1 103.264 6.912 L 103.264 15.648 Q 103.264 16.192 102.896 16.576 Q 102.528 16.96 101.984 16.96 Q 101.408 16.96 101.056 16.576 Q 100.704 16.192 100.704 15.648 L 100.704 6.976 A 7.316 7.316 0 0 0 100.6 5.718 A 5.821 5.821 0 0 0 100.336 4.72 A 3.475 3.475 0 0 0 99.691 3.611 A 3.244 3.244 0 0 0 99.152 3.12 A 2.851 2.851 0 0 0 98.257 2.695 Q 97.867 2.583 97.401 2.546 A 6.001 6.001 0 0 0 96.928 2.528 A 5.037 5.037 0 0 0 95.051 2.875 A 4.805 4.805 0 0 0 94.528 3.12 Q 93.44 3.712 92.8 4.72 Q 92.16 5.728 92.16 6.976 L 92.16 15.648 Q 92.16 16.192 91.808 16.576 Q 91.456 16.96 90.88 16.96 A 1.266 1.266 0 0 1 90.352 16.852 A 1.236 1.236 0 0 1 89.968 16.576 Q 89.6 16.192 89.6 15.648 L 89.6 6.88 A 7.572 7.572 0 0 0 89.507 5.665 A 5.907 5.907 0 0 0 89.264 4.688 Q 88.928 3.712 88.128 3.12 A 2.754 2.754 0 0 0 87.262 2.7 Q 86.879 2.587 86.421 2.549 A 5.94 5.94 0 0 0 85.92 2.528 A 4.781 4.781 0 0 0 84.074 2.882 A 4.588 4.588 0 0 0 83.584 3.12 Q 82.528 3.712 81.888 4.688 Q 81.248 5.664 81.248 6.88 L 81.248 15.648 Q 81.248 16.192 80.88 16.576 Q 80.512 16.96 79.968 16.96 A 1.266 1.266 0 0 1 79.44 16.852 A 1.236 1.236 0 0 1 79.056 16.576 Q 78.688 16.192 78.688 15.648 L 78.688 1.696 Q 78.688 1.152 79.056 0.784 Q 79.424 0.416 79.968 0.416 A 1.463 1.463 0 0 1 80.392 0.475 A 1.143 1.143 0 0 1 80.896 0.784 A 1.257 1.257 0 0 1 81.247 1.642 A 1.641 1.641 0 0 1 81.248 1.696 L 81.248 4.128 L 80.544 4.896 A 3.969 3.969 0 0 1 80.86 3.856 A 5.113 5.113 0 0 1 81.2 3.232 Q 81.728 2.4 82.56 1.696 Q 83.392 0.992 84.416 0.576 Q 85.44 0.16 86.592 0.16 A 7.015 7.015 0 0 1 88.109 0.316 Q 89.278 0.574 90.128 1.264 A 4.957 4.957 0 0 1 91.588 3.264 A 6.801 6.801 0 0 1 91.936 4.384 Z M 34.4 6.656 L 34.4 15.648 Q 34.4 16.192 34.032 16.576 Q 33.664 16.96 33.12 16.96 A 1.266 1.266 0 0 1 32.592 16.852 A 1.236 1.236 0 0 1 32.208 16.576 Q 31.84 16.192 31.84 15.648 L 31.84 6.72 Q 31.84 5.504 31.472 4.528 Q 31.104 3.552 30.256 2.96 A 2.988 2.988 0 0 0 29.364 2.547 Q 28.977 2.435 28.516 2.393 A 6.422 6.422 0 0 0 27.936 2.368 A 5.297 5.297 0 0 0 26.01 2.715 A 5.03 5.03 0 0 0 25.472 2.96 A 5.071 5.071 0 0 0 24.094 4.01 A 4.721 4.721 0 0 0 23.68 4.528 Q 23.008 5.504 23.008 6.72 L 23.008 15.648 Q 23.008 16.192 22.64 16.576 Q 22.272 16.96 21.728 16.96 A 1.266 1.266 0 0 1 21.2 16.852 A 1.236 1.236 0 0 1 20.816 16.576 Q 20.448 16.192 20.448 15.648 L 20.448 1.696 Q 20.448 1.152 20.816 0.784 Q 21.184 0.416 21.728 0.416 A 1.463 1.463 0 0 1 22.152 0.475 A 1.143 1.143 0 0 1 22.656 0.784 A 1.257 1.257 0 0 1 23.007 1.642 A 1.641 1.641 0 0 1 23.008 1.696 L 23.008 3.968 L 22.368 4.672 A 4.013 4.013 0 0 1 22.692 3.705 A 5.41 5.41 0 0 1 23.104 2.992 A 6.612 6.612 0 0 1 24.385 1.6 A 7.476 7.476 0 0 1 24.544 1.472 Q 25.408 0.8 26.464 0.4 Q 27.52 0 28.672 0 Q 30.209 0 31.282 0.447 A 4.069 4.069 0 0 1 32.096 0.896 Q 33.344 1.792 33.872 3.296 Q 34.4 4.8 34.4 6.656 Z M 54.048 1.536 L 54.048 15.648 Q 54.048 16.192 53.68 16.576 Q 53.312 16.96 52.768 16.96 Q 52.192 16.96 51.84 16.576 Q 51.488 16.192 51.488 15.648 L 51.488 12.608 L 52.096 12.544 A 2.432 2.432 0 0 1 51.992 13.229 Q 51.872 13.637 51.616 14.08 Q 51.136 14.912 50.304 15.632 Q 49.472 16.352 48.336 16.816 A 6.343 6.343 0 0 1 46.133 17.276 A 7.284 7.284 0 0 1 45.888 17.28 A 7.11 7.11 0 0 1 43.006 16.7 A 6.876 6.876 0 0 1 41.984 16.144 A 7.967 7.967 0 0 1 39.344 13.238 A 9.4 9.4 0 0 1 39.248 13.056 Q 38.24 11.104 38.24 8.608 Q 38.24 6.08 39.248 4.144 A 8.028 8.028 0 0 1 41.022 1.833 A 7.544 7.544 0 0 1 41.984 1.104 Q 43.712 0 45.824 0 A 7.441 7.441 0 0 1 47.693 0.229 A 6.663 6.663 0 0 1 48.384 0.448 A 6.96 6.96 0 0 1 49.929 1.258 A 6.259 6.259 0 0 1 50.448 1.664 Q 51.328 2.432 51.824 3.36 A 4.319 4.319 0 0 1 52.211 4.346 A 3.568 3.568 0 0 1 52.32 5.216 L 51.488 5.024 L 51.488 1.536 A 1.385 1.385 0 0 1 51.57 1.052 A 1.234 1.234 0 0 1 51.84 0.624 A 1.175 1.175 0 0 1 52.573 0.268 A 1.634 1.634 0 0 1 52.768 0.256 Q 53.312 0.256 53.68 0.624 Q 54.048 0.992 54.048 1.536 Z M 46.176 14.912 A 5.221 5.221 0 0 0 47.944 14.62 A 4.746 4.746 0 0 0 49.008 14.08 A 5.554 5.554 0 0 0 50.84 12 A 6.578 6.578 0 0 0 50.928 11.824 Q 51.616 10.4 51.616 8.608 Q 51.616 6.848 50.928 5.424 Q 50.24 4 49.008 3.184 A 4.928 4.928 0 0 0 46.522 2.378 A 6.049 6.049 0 0 0 46.176 2.368 A 5.241 5.241 0 0 0 44.316 2.693 A 4.868 4.868 0 0 0 43.376 3.168 A 5.445 5.445 0 0 0 41.553 5.16 A 6.512 6.512 0 0 0 41.44 5.376 A 6.625 6.625 0 0 0 40.812 7.456 A 8.492 8.492 0 0 0 40.736 8.608 A 8.018 8.018 0 0 0 40.942 10.458 A 6.646 6.646 0 0 0 41.424 11.824 A 5.763 5.763 0 0 0 42.661 13.534 A 5.424 5.424 0 0 0 43.344 14.08 A 4.878 4.878 0 0 0 45.904 14.906 A 5.979 5.979 0 0 0 46.176 14.912 Z M 58.784 15.648 L 58.784 1.696 Q 58.784 1.152 59.152 0.784 Q 59.52 0.416 60.064 0.416 A 1.463 1.463 0 0 1 60.488 0.475 A 1.143 1.143 0 0 1 60.992 0.784 A 1.257 1.257 0 0 1 61.343 1.642 A 1.641 1.641 0 0 1 61.344 1.696 L 61.344 5.92 L 60.96 5.248 Q 61.152 4.256 61.648 3.312 Q 62.144 2.368 62.912 1.616 Q 63.68 0.864 64.672 0.432 A 5.246 5.246 0 0 1 66.411 0.016 A 6.211 6.211 0 0 1 66.848 0 Q 67.552 0 68.144 0.336 A 1.373 1.373 0 0 1 68.456 0.573 A 0.979 0.979 0 0 1 68.736 1.28 A 2.035 2.035 0 0 1 68.705 1.648 Q 68.668 1.853 68.584 2.011 A 0.938 0.938 0 0 1 68.384 2.272 A 1.245 1.245 0 0 1 68.002 2.515 A 1.132 1.132 0 0 1 67.584 2.592 Q 67.168 2.592 66.784 2.416 A 1.773 1.773 0 0 0 66.411 2.296 Q 66.148 2.24 65.824 2.24 A 3.12 3.12 0 0 0 64.596 2.499 A 3.868 3.868 0 0 0 64.24 2.672 A 4.626 4.626 0 0 0 63.266 3.398 A 5.842 5.842 0 0 0 62.8 3.904 Q 62.144 4.704 61.744 5.712 A 5.764 5.764 0 0 0 61.346 7.729 A 6.56 6.56 0 0 0 61.344 7.872 L 61.344 15.648 Q 61.344 16.192 60.976 16.576 Q 60.608 16.96 60.064 16.96 A 1.266 1.266 0 0 1 59.536 16.852 A 1.236 1.236 0 0 1 59.152 16.576 Q 58.784 16.192 58.784 15.648 Z M 16.264 11.259 A 8.226 8.226 0 0 1 15.504 13.088 Q 14.4 15.04 12.528 16.16 A 7.954 7.954 0 0 1 8.682 17.274 A 9.525 9.525 0 0 1 8.32 17.28 A 8.382 8.382 0 0 1 5.32 16.751 A 7.87 7.87 0 0 1 4.096 16.16 Q 2.208 15.04 1.104 13.088 A 8.543 8.543 0 0 1 0.053 9.706 A 10.542 10.542 0 0 1 0 8.64 A 9.632 9.632 0 0 1 0.345 6.022 A 8.226 8.226 0 0 1 1.104 4.192 Q 2.208 2.24 4.096 1.12 Q 5.984 0 8.32 0 A 8.361 8.361 0 0 1 11.186 0.483 A 7.731 7.731 0 0 1 12.528 1.12 Q 14.4 2.24 15.504 4.192 A 8.543 8.543 0 0 1 16.555 7.574 A 10.542 10.542 0 0 1 16.608 8.64 A 9.632 9.632 0 0 1 16.264 11.259 Z M 14.048 8.64 A 7.763 7.763 0 0 0 13.863 6.909 A 6.136 6.136 0 0 0 13.296 5.376 Q 12.544 3.968 11.248 3.168 A 5.403 5.403 0 0 0 8.573 2.373 A 6.503 6.503 0 0 0 8.32 2.368 A 5.699 5.699 0 0 0 6.367 2.697 A 5.255 5.255 0 0 0 5.392 3.168 A 5.797 5.797 0 0 0 3.34 5.354 A 6.774 6.774 0 0 0 3.328 5.376 Q 2.56 6.784 2.56 8.64 A 7.376 7.376 0 0 0 2.771 10.436 A 6.057 6.057 0 0 0 3.328 11.872 Q 4.096 13.28 5.392 14.096 A 5.336 5.336 0 0 0 8.118 14.909 A 6.405 6.405 0 0 0 8.32 14.912 A 5.584 5.584 0 0 0 10.318 14.561 A 5.215 5.215 0 0 0 11.248 14.096 Q 12.544 13.28 13.296 11.872 Q 14.048 10.464 14.048 8.64 Z M 74.08 1.44 L 74.08 15.648 Q 74.08 16.192 73.712 16.576 Q 73.344 16.96 72.8 16.96 Q 72.224 16.96 71.872 16.576 Q 71.52 16.192 71.52 15.648 L 71.52 1.44 Q 71.52 0.896 71.888 0.528 Q 72.256 0.16 72.8 0.16 Q 73.344 0.16 73.712 0.528 Q 74.08 0.896 74.08 1.44 Z"/></g></svg>